<?xml version="1.0" encoding="utf-8"?>
<!-- Generator: Adobe Illustrator 18.0.0, SVG Export Plug-In . SVG Version: 6.00 Build 0)  -->
<!DOCTYPE svg PUBLIC "-//W3C//DTD SVG 1.1//EN" "http://www.w3.org/Graphics/SVG/1.1/DTD/svg11.dtd">
<svg version="1.1" id="图层_1" xmlns="http://www.w3.org/2000/svg" xmlns:xlink="http://www.w3.org/1999/xlink" x="0px" y="0px"
	 viewBox="0 0 213.964 212.162" enable-background="new 0 0 213.964 212.162" xml:space="preserve">
<script language="JavaScript" xlink:href="../../assets/js/lib/jquery-1.10.2.min.js" />
<script language="JavaScript" xlink:href="console.main2.ctrl.js" />
<input type="hidden" id="currentCouldControlId" value="3000"/>
<input type="hidden" id="macValue" value=""/>
<input type="hidden" id="urlAdressValue" value=""/>
<radialGradient id="outlight_1_" cx="105.9239" cy="106.674" r="104.3917" gradientUnits="userSpaceOnUse">
	<stop  offset="0.8763" style="stop-color:#187FC4" />
	<stop  offset="1" style="stop-color:#187FC4;stop-opacity:0"/>
</radialGradient>
<path id="outlight" fill="url(#outlight_1_)" fill-opacity="0.1" d="M210.316,106.673c0,57.657-46.733,104.392-104.391,104.392
	c-57.659,0-104.393-46.735-104.393-104.392c0-57.657,46.735-104.392,104.393-104.391C163.582,2.283,210.316,49.017,210.316,106.673z
	"/>
<path id="circle-bg" fill="#1C41E6" stroke="#FFFFFF" stroke-width="3" stroke-miterlimit="10" d="M199.424,106.674
	c0,51.642-41.857,93.5-93.499,93.5c-51.643,0-93.501-41.858-93.501-93.5c0-51.641,41.858-93.5,93.501-93.499
	C157.566,13.175,199.424,55.032,199.424,106.674z"/>
	
<g id="rightbtn_1_" cursor="pointer"
   onmouseover="setAttribute('fill-opacity','0')"
   onmouseout="setAttribute('fill-opacity','1')"
   onmouseup="setVideo2('')"  onmousedown="setVideo2('6')">
	<path id="rightbg_1_" fill="#24292e" d="M144.543,147.898l26.562,26.655l19.436-28.1l6.895-21.671l1.762-18.75l-2.62-21.95
		l-10.554-26.346L172.549,39.41l-27.879,27.023C144.671,66.433,179.524,94.417,144.543,147.898z"/>
	<path id="right1" fill="#FFFFFF" fill-opacity="1" d="M179.035,97.111c-0.645,0.654-1.318,1.331-2.027,2.041c2.33,2.324,4.675,4.667,7.026,7.013
		c-2.377,2.379-4.716,4.717-7.03,7.029c0.718,0.716,1.401,1.4,2.045,2.048c3.011-3.007,6.055-6.045,9.06-9.057
		C185.117,103.185,182.081,100.156,179.035,97.111"/>
</g>

<g id="downbtn_1_"  cursor="pointer"
   onmouseover="setAttribute('fill-opacity','0')"
   onmouseout="setAttribute('fill-opacity','1')"
   onmouseup="setVideo2('')"  onmousedown="setVideo2('2')">
	<path id="downbg" fill="#24292e" d="M65.721,147.357l-25.41,26.389l27.622,18.467l21.161,6.345l18.234,1.388L128.592,197
		l25.392-10.764l17.553-13.471l-26.725-26.724C144.811,146.041,118.258,180.543,65.721,147.357z"/>
	<path id="down1" fill="#FFFFFF"  fill-opacity="1" d="M116.843,177.71c-0.657-0.651-1.331-1.319-2.033-2.028c-2.329,2.326-4.674,4.668-7.024,7.022
		c-2.378-2.38-4.719-4.716-7.023-7.027c-0.719,0.719-1.403,1.398-2.05,2.045c3.008,3.005,6.052,6.046,9.058,9.057
		C110.774,183.779,113.799,180.749,116.843,177.71"/>
</g>
<g id="leftbtn"  cursor="pointer"
   onmouseover="setAttribute('fill-opacity','0')"
   onmouseout="setAttribute('fill-opacity','1')"
   onmouseup="setVideo2('')"  onmousedown="setVideo2('4')">
	<path id="leftbg" fill="#24292e" d="M65.012,67.176l-26.389-25.41L20.156,69.389L13.811,90.55l-1.388,18.234l2.945,21.264
		l10.764,25.392l13.471,17.553l26.724-26.725C66.328,146.267,31.826,119.713,65.012,67.176z"/>
	<path id="left1" fill-opacity="1"  fill="#FFFFFF" d="M33.395,116.848c0.644-0.654,1.318-1.323,2.026-2.035c-2.33-2.322-4.675-4.668-7.019-7.018
		c2.371-2.377,4.708-4.711,7.024-7.03c-0.718-0.715-1.403-1.395-2.045-2.041c-3.013,3.006-6.046,6.046-9.061,9.057
		C27.322,110.779,30.349,113.809,33.395,116.848"/>
</g>
<g id="upbtn_1_"  cursor="pointer"
   onmouseover="setAttribute('fill-opacity','0')"
   onmouseout="setAttribute('fill-opacity','1')"
   onmouseup="setVideo2('')"  onmousedown="setVideo2('8')">
	<path id="upbg" fill="#24292e" d="M145.871,65.763l25.665-26.389l-27.9-18.467l-21.373-6.345l-18.418-1.388L82.368,16.12
		L56.721,26.883l-17.73,13.471l26.994,26.724C65.985,67.078,92.806,32.577,145.871,65.763z"/>
	<path id="up1" fill="#FFFFFF"  fill-opacity="1" d="M97.28,36.368c0.646,0.65,1.323,1.319,2.033,2.029c2.322-2.325,4.663-4.67,7.014-7.022
		c2.379,2.376,4.719,4.715,7.034,7.026c0.719-0.719,1.392-1.398,2.043-2.046c-3.008-3.005-6.045-6.044-9.062-9.057
		C103.348,30.298,100.315,33.33,97.28,36.368"/>
</g>
<line id="no02" fill="none" stroke="#9FA0A0" stroke-width="2" stroke-miterlimit="10" x1="39.604" y1="41.767" x2="170.824" y2="172.993"/>
<line id="no01" fill="none" stroke="#9FA0A0" stroke-width="2" stroke-miterlimit="10" x1="170.824" y1="41.767" x2="39.604" y2="172.992"/>
<path id="circle-small" fill="#1C41E6" stroke="#FFFFFF" stroke-width="3" stroke-miterlimit="10" d="M161.923,106.674
	c0,30.927-25.077,55.995-55.998,55.995c-30.923,0-55.998-25.068-55.998-55.995c0-30.926,25.075-55.994,55.998-55.994
	C136.846,50.679,161.923,75.747,161.923,106.674z"/>
<g id="increase"  cursor="pointer"
   onmouseover="setAttribute('fill-opacity','0')"
   onmouseout="setAttribute('fill-opacity','1')"
   onmouseup="setVideo2('')"  onmousedown="setVideo2('1')">
	<path id="inbg" fill="#24292e" d="M107.777,50.679c0,0-56.902-0.95-57.851,55.994v1.112l112.677-0.236
		C162.604,107.55,163.528,56.089,107.777,50.679z"/>
	
		<line id="in2" fill="none" stroke="#FFFFFF" stroke-width="3" stroke-linecap="round" stroke-miterlimit="10" x1="97.604" y1="82.05" x2="113.604" y2="82.05"/>
	
		<line id="in1" fill="none" stroke="#FFFFFF" stroke-width="3" stroke-linecap="round" stroke-miterlimit="10" x1="105.104" y1="74.55" x2="105.104" y2="90.55"/>
</g>
<g id="decrease"  cursor="pointer"
   onmouseover="setAttribute('fill-opacity','0')"
   onmouseout="setAttribute('fill-opacity','1')"
   onmouseup="setVideo2('')"  onmousedown="setVideo2('3')">
	<path id="decbg" fill="#24292e" d="M103.592,163.78c0,0,56.902,0.95,57.851-55.994v-1.112L48.766,106.91
		C48.766,106.91,47.841,158.371,103.592,163.78z"/>
	
		<line id="de1" fill="none" stroke="#FFFFFF" stroke-width="3" stroke-linecap="round" stroke-miterlimit="10" x1="98.604" y1="134.05" x2="114.604" y2="134.05"/>
</g>
<g id="middle-line">
	<g opacity="0.4">
		<line fill="none" stroke="#0C0C0C" stroke-width="2" stroke-miterlimit="10" x1="162.604" y1="109.55" x2="50.604" y2="109.55"/>
	</g>
	<g>
		<line fill="none" stroke="#B3B3B3" stroke-width="2" stroke-miterlimit="10" x1="162.604" y1="107.55" x2="50.604" y2="107.55"/>
	</g>
</g>
<path id="circle-small-border" fill="none" stroke="#FFFFFF" stroke-width="3" stroke-miterlimit="10" d="M161.923,106.674
	c0,30.927-25.077,55.995-55.998,55.995c-30.923,0-55.998-25.068-55.998-55.995c0-30.926,25.075-55.994,55.998-55.994
	C136.846,50.679,161.923,75.747,161.923,106.674z"/>
<path id="circle-big-border" fill="none" stroke="#FFFFFF" stroke-width="3" stroke-miterlimit="10" d="M199.424,106.674
	c0,51.642-41.857,93.5-93.499,93.5c-51.643,0-93.501-41.858-93.501-93.5c0-51.641,41.858-93.5,93.501-93.499
	C157.566,13.175,199.424,55.032,199.424,106.674z"/>
</svg>
