<?xml version="1.0" encoding="utf-8"?>
<!-- Generator: Adobe Illustrator 16.0.0, SVG Export Plug-In . SVG Version: 6.00 Build 0)  -->
<!DOCTYPE svg PUBLIC "-//W3C//DTD SVG 1.1//EN" "http://www.w3.org/Graphics/SVG/1.1/DTD/svg11.dtd">
<svg version="1.1" id="图层_1" xmlns="http://www.w3.org/2000/svg" xmlns:xlink="http://www.w3.org/1999/xlink" x="0px" y="0px"
	 width="590px" height="80px" viewBox="0 0 590 80" enable-background="new 0 0 590 80" xml:space="preserve">
<symbol  id="mem" viewBox="-291 -28 583 82">
	<g>
		<path fill="none" stroke="#FFFFFF" stroke-width="3" stroke-miterlimit="10" d="M-289.5-28v71.5c0,4.95,4.05,9,9,9h562
			c4.95,0,9-4.05,9-9V-28"/>
	</g>
	
		<use xlink:href="#pause"  width="37" height="41" id="XMLID_4_" x="-18" y="-21" transform="matrix(0.3615 0 0 0.3615 -204.6313 9.9526)" overflow="visible"/>
	<use xlink:href="#mem1"  width="43" height="35" x="-22" y="-18" transform="matrix(1 0 0 1 209 9)" overflow="visible"/>
	<g display="none">
		<path display="inline" fill="#FFFFFF" d="M-55-7c0-2.2-1.8-4-4-4h-48c-2.2,0-4,1.8-4,4v30c0,2.2,1.8,4,4,4h48c2.2,0,4-1.8,4-4V-7z
			"/>
	</g>
	<g display="none">
		<path display="inline" fill="none" stroke="#FFFFFF" stroke-width="3" stroke-miterlimit="10" d="M-89.471,9.268
			c0-2.762-2.239-5-5-5s-5,2.238-5,5s2.239,5,5,5S-89.471,12.029-89.471,9.268z"/>
		<path display="inline" fill="none" stroke="#FFFFFF" stroke-width="3" stroke-miterlimit="10" d="M-68.471,9.268
			c0-2.762-2.239-5-5-5s-5,2.238-5,5s2.239,5,5,5S-68.471,12.029-68.471,9.268z"/>
		<polygon display="inline" fill="#FFFFFF" points="-73,13 -95,13 -95,16 -73,16 		"/>
		<g display="inline">
			<path fill="none" stroke="#FFFFFF" stroke-width="3" stroke-miterlimit="10" d="M-60.5-3.5c0-2.209-1.791-4-4-4h-40
				c-2.209,0-4,1.791-4,4v23c0,2.209,1.791,4,4,4h40c2.209,0,4-1.791,4-4V-3.5z"/>
		</g>
		<polyline display="inline" fill="none" stroke="#FFFFFF" stroke-width="3" stroke-miterlimit="10" points="-97.405,-6.34 
			-94.239,-1.5 -75.058,-1.5 -71.222,-6.588 		"/>
	</g>
	<path fill="none" stroke="#FFFFFF" stroke-width="3" stroke-miterlimit="10" d="M-226.5,22.623V15.07l-10,3.43V2.482l10,3.272
		v-9.294c0,0,1.746-2.961,4.475-2.961c9.074,0,32.013,0,34.723,0c3.525,0,4.802,0.694,4.802,3.464s0,24.4,0,24.4
		s-1.278,4.136-4.802,4.136c-2.735,0-26.023,0-34.975,0C-224.861,25.5-226.5,22.623-226.5,22.623z"/>
	<polygon display="none" fill="none" points="-291,54 292,54 292,-28 -291,-28 	"/>
</symbol>
<symbol  id="mem1" viewBox="-22 -18 43 35">
	<polygon fill="none" stroke="#FFFFFF" stroke-width="4" stroke-miterlimit="10" points="-4,-16 -20,-16 -20,-4 -4,-4 	"/>
	<polygon fill="none" stroke="#FFFFFF" stroke-width="4" stroke-miterlimit="10" points="-4,3 -20,3 -20,15 -4,15 	"/>
	<polygon fill="none" stroke="#FFFFFF" stroke-width="4" stroke-miterlimit="10" points="19,-16 3,-16 3,-4 19,-4 	"/>
	<polygon fill="none" stroke="#FFFFFF" stroke-width="4" stroke-miterlimit="10" points="19,3 3,3 3,15 19,15 	"/>
	<polygon display="none" fill="none" points="-22,17 21,17 21,-18 -22,-18 	"/>
</symbol>
<symbol  id="pause" viewBox="-18 -21 37 41">
	<polygon fill="#FFFFFF" points="-6,-21 -18,-21 -18,20 -6,20 	"/>
	<polygon fill="#FFFFFF" points="19,-21 7,-21 7,20 19,20 	"/>
	<polygon display="none" fill="none" points="-18,20 19,20 19,-21 -18,-21 	"/>
</symbol>
<use xlink:href="#mem"  width="583" height="82" id="XMLID_3_" x="-291" y="-28" transform="matrix(1 0 0 -1 295 54)" overflow="visible"/>
</svg>
